<?xml version="1.0" standalone="no"?>
<!DOCTYPE svg PUBLIC "-//W3C//DTD SVG 20010904//EN"
 "http://www.w3.org/TR/2001/REC-SVG-20010904/DTD/svg10.dtd">
<svg version="1.0" xmlns="http://www.w3.org/2000/svg"
 width="305.000000pt" height="305.000000pt" viewBox="0 0 305.000000 305.000000"
 preserveAspectRatio="xMidYMid meet">
<metadata>
Created by potrace 1.11, written by Peter Selinger 2001-2013
</metadata>
<g transform="translate(0.000000,305.000000) scale(0.100000,-0.100000)"
fill="#000000" stroke="none">
<path d="M1380 3010 c-148 -11 -298 -43 -395 -85 -16 -8 -49 -19 -72 -27 -24
-7 -43 -16 -43 -19 0 -4 -11 -10 -25 -13 -28 -7 -96 -46 -80 -46 10 0 -37 -29
-85 -52 -14 -7 -30 -17 -37 -23 -7 -5 -19 -16 -27 -22 -8 -7 -19 -13 -23 -13
-5 0 -14 -9 -21 -20 -7 -11 -17 -20 -23 -20 -9 0 -79 -68 -120 -116 -8 -11
-27 -28 -42 -39 -15 -11 -27 -24 -27 -29 0 -5 -10 -17 -22 -27 -11 -11 -18
-19 -14 -19 4 0 -5 -12 -19 -27 -14 -15 -25 -33 -25 -40 0 -7 -4 -13 -8 -13
-5 0 -17 -18 -27 -40 -10 -22 -22 -40 -27 -40 -5 0 -6 -4 -3 -10 3 -5 1 -10
-6 -10 -7 0 -9 -3 -6 -6 4 -4 -3 -20 -14 -35 -11 -16 -17 -29 -12 -29 4 0 1
-5 -7 -10 -8 -5 -15 -13 -15 -17 -1 -4 -8 -21 -17 -38 -18 -36 -43 -107 -40
-117 1 -5 -3 -8 -10 -8 -6 0 -8 -3 -5 -6 3 -4 2 -15 -3 -25 -6 -10 -11 -29
-12 -43 -1 -15 -6 -26 -10 -26 -4 0 -6 -8 -6 -17 0 -10 -3 -34 -7 -53 -4 -19
-8 -47 -8 -62 0 -16 -4 -28 -7 -28 -4 0 -8 -19 -8 -42 -6 -196 -7 -308 -2
-308 3 0 6 -17 7 -37 2 -44 10 -117 13 -120 1 -2 3 -11 4 -20 1 -10 6 -34 11
-53 5 -19 8 -41 6 -47 -1 -7 2 -13 7 -13 5 0 9 -7 10 -15 1 -8 3 -22 4 -30 1
-8 6 -15 11 -15 6 0 8 -3 5 -6 -4 -3 0 -21 8 -40 8 -19 11 -34 8 -34 -4 0 -1
-6 5 -13 6 -8 8 -17 4 -20 -3 -4 -1 -7 5 -7 7 0 12 -9 12 -20 0 -11 4 -20 8
-20 5 0 15 -12 23 -27 8 -16 17 -30 21 -33 4 -3 9 -18 12 -33 2 -15 12 -34 21
-43 9 -9 14 -23 11 -30 -3 -8 1 -14 9 -14 8 0 15 -6 15 -13 0 -7 9 -23 19 -34
11 -12 17 -24 14 -27 -4 -3 -1 -6 5 -6 7 0 12 -7 12 -15 0 -8 5 -15 10 -15 6
0 10 -7 10 -15 0 -8 5 -15 11 -15 5 0 7 5 3 12 -4 7 -3 8 5 4 6 -4 9 -11 6
-16 -3 -5 4 -14 15 -20 14 -8 19 -17 15 -28 -3 -9 -3 -13 1 -9 9 9 35 -13 28
-24 -3 -5 -1 -9 5 -9 6 0 36 -26 68 -57 32 -32 61 -58 66 -58 5 0 14 -8 21
-17 7 -10 17 -18 21 -18 4 0 14 -8 22 -17 8 -10 11 -12 7 -3 -5 8 6 4 23 -10
16 -14 39 -31 49 -38 11 -7 13 -10 7 -7 -7 3 -13 1 -13 -5 0 -7 8 -9 20 -5 21
7 125 -56 113 -68 -3 -4 3 -7 15 -7 31 0 53 -11 45 -23 -4 -6 -1 -7 6 -2 7 4
25 2 39 -5 44 -20 65 -28 109 -41 23 -7 40 -15 38 -19 -2 -4 6 -5 18 -3 12 2
42 -1 67 -7 132 -32 205 -40 360 -39 153 0 181 3 310 32 67 15 80 17 129 20
16 1 27 5 25 9 -7 11 43 21 57 12 7 -4 9 -3 6 3 -4 6 4 14 18 17 14 4 25 11
25 17 0 8 5 7 15 -1 8 -7 15 -8 15 -4 0 10 60 40 73 36 10 -3 129 60 159 85
14 10 22 26 20 38 l-3 20 17 -20 c13 -16 15 -16 11 -3 -6 18 45 64 61 54 11
-7 59 39 67 64 3 11 11 20 17 20 6 0 5 -7 -3 -17 -7 -10 -1 -7 13 6 15 13 25
29 21 35 -3 6 -3 8 2 4 10 -9 36 17 33 34 -2 7 5 12 15 11 10 0 16 2 13 5 -3
3 3 11 14 19 10 7 17 19 14 26 -4 12 30 52 45 52 3 0 5 3 4 7 -4 10 45 58 58
58 6 0 7 5 4 11 -4 6 3 22 16 35 21 22 21 24 4 18 -15 -6 -13 -2 7 18 15 14
25 28 21 31 -3 4 2 7 13 8 11 0 14 3 6 6 -10 4 -10 8 -1 19 6 8 9 14 5 14 -3
0 4 17 18 38 13 21 27 52 31 70 3 17 10 32 14 32 4 0 8 6 9 13 2 30 26 103 38
118 8 9 11 19 7 22 -3 4 -1 7 6 7 8 0 11 6 7 16 -3 9 -3 21 1 27 4 7 8 21 10
32 2 11 6 36 9 55 3 19 6 52 6 73 1 20 4 37 8 37 7 0 3 308 -5 365 -3 22 -6
52 -7 68 0 15 -4 27 -9 27 -4 0 -7 8 -7 18 0 9 -2 32 -6 50 -4 19 -8 39 -9 45
-1 7 -8 17 -15 22 -7 6 -14 20 -15 33 0 12 -4 22 -7 22 -5 0 -9 18 -12 58 -1
6 -5 12 -10 12 -5 0 -6 5 -3 10 3 6 1 10 -5 10 -6 0 -8 5 -5 10 3 6 1 10 -6
10 -7 0 -9 3 -6 7 4 3 0 17 -8 30 -9 13 -13 23 -10 23 4 0 -3 14 -15 30 -12
17 -18 30 -13 30 4 0 3 4 -2 8 -15 10 -50 66 -47 75 1 4 -3 7 -8 7 -6 0 -10 5
-10 11 0 6 -11 25 -25 43 -14 18 -25 38 -25 44 0 7 -6 12 -14 12 -7 0 -22 12
-31 27 -10 15 -33 43 -51 62 -70 76 -145 151 -149 151 -8 0 -100 65 -103 72
-2 4 -18 15 -36 23 -19 9 -42 24 -52 33 -16 15 -160 88 -219 113 -164 67 -461
106 -685 89z m320 -512 c107 -20 268 -100 321 -160 9 -10 21 -18 26 -18 18 0
64 -53 59 -67 -3 -8 -2 -12 3 -9 5 3 14 0 20 -8 9 -11 9 -15 -1 -20 -7 -3 -3
-4 10 -2 12 2 20 0 16 -5 -3 -5 -1 -9 4 -9 8 0 35 -45 36 -62 1 -4 9 -16 18
-27 9 -11 14 -22 11 -25 -4 -3 -2 -6 4 -6 5 0 10 -6 11 -12 1 -7 4 -29 8 -48
3 -19 7 -43 7 -52 1 -10 4 -18 7 -18 3 0 5 -27 5 -60 0 -33 -2 -60 -5 -60 -3
0 -6 -12 -7 -27 -1 -26 -9 -65 -13 -70 -2 -2 -4 -7 -5 -13 -1 -5 -4 -13 -5
-17 -1 -5 -2 -11 -1 -15 0 -5 -4 -8 -10 -8 -5 0 -7 -4 -4 -10 3 -5 1 -10 -4
-10 -6 0 -11 -7 -11 -15 0 -8 -4 -15 -10 -15 -5 0 -9 -3 -7 -8 2 -7 -102 -112
-149 -149 -16 -13 -35 -23 -41 -23 -7 0 -13 -4 -13 -9 0 -5 -13 -14 -29 -19
-77 -27 -194 -162 -186 -214 2 -10 -2 -18 -8 -18 -5 0 -8 -3 -4 -6 3 -4 0 -13
-8 -21 -21 -21 -451 -15 -465 7 -5 8 -6 18 -4 22 3 4 1 8 -4 8 -12 0 -6 90 11
173 2 10 9 22 16 27 8 4 11 12 8 18 -4 5 7 20 23 32 16 12 27 26 25 30 -10 16
7 39 22 33 11 -4 14 -2 9 5 -4 8 0 12 11 12 12 0 14 3 6 8 -13 8 -11 10 52 61
17 14 18 14 10 1 -6 -9 -2 -7 9 5 10 11 21 20 25 20 3 0 5 4 3 9 -2 5 4 6 13
3 8 -4 15 -1 15 6 0 16 108 70 122 61 7 -5 8 -2 3 6 -6 10 -4 12 8 7 11 -4 14
-2 10 9 -3 9 1 14 12 14 10 0 13 -5 9 -12 -4 -7 -3 -8 5 -4 6 4 9 11 6 16 -3
5 4 14 15 20 11 6 19 14 18 18 -1 4 3 17 10 30 7 12 10 22 6 22 -3 0 -2 6 3
13 6 6 9 33 7 59 -3 48 -23 83 -59 99 -11 5 -35 18 -53 29 -69 42 -225 34
-296 -14 -32 -21 -120 -106 -111 -106 3 0 -8 -14 -25 -31 -16 -18 -30 -36 -30
-40 0 -5 -7 -9 -15 -9 -8 0 -15 -4 -15 -10 0 -20 -36 -9 -68 20 -18 17 -37 30
-41 30 -4 0 -16 9 -26 20 -10 11 -39 32 -64 46 -47 28 -52 32 -109 84 -26 23
-31 35 -27 57 2 15 9 29 15 31 5 2 10 8 10 14 0 5 6 15 13 22 6 8 18 23 26 34
8 12 18 19 23 16 4 -3 5 2 2 10 -3 9 -1 16 6 16 6 0 9 4 5 9 -3 5 0 13 6 17 8
4 9 3 5 -4 -4 -7 -2 -12 3 -12 6 0 11 7 11 15 0 8 5 15 11 15 5 0 7 4 4 10 -4
6 1 7 11 3 12 -4 15 -3 10 5 -4 7 -2 12 4 12 6 0 9 4 5 9 -7 13 84 73 97 65 7
-4 8 -2 4 4 -4 7 -3 12 3 12 6 0 20 10 32 23 12 12 19 15 15 7 -4 -8 2 -4 13
9 13 14 21 18 21 10 1 -9 4 -8 11 4 5 9 15 17 21 17 7 0 7 -4 -1 -13 -7 -10 7
-8 47 6 31 11 82 26 112 33 34 8 45 13 28 13 -15 1 -47 -5 -70 -13 -65 -21
-104 -29 -93 -18 17 16 133 43 218 51 88 9 160 5 247 -11z m25 -1488 c14 -5
24 -14 20 -19 -3 -6 0 -13 8 -18 10 -6 13 -55 12 -210 0 -119 -4 -203 -9 -203
-5 0 -7 -3 -3 -6 3 -4 0 -13 -8 -20 -11 -11 -57 -14 -222 -13 -205 0 -247 5
-249 28 -1 6 -3 12 -4 14 -1 1 -3 91 -4 200 -1 158 1 197 12 197 7 0 10 5 7
10 -3 6 -5 11 -3 12 2 1 107 5 233 8 l230 6 -232 0 c-187 -1 -228 1 -210 11
27 15 383 18 422 3z m785 -623 c0 -2 -12 -14 -27 -28 l-28 -24 24 28 c23 25
31 32 31 24z m-150 -122 c0 -8 -63 -45 -75 -45 -5 1 8 12 30 25 43 27 45 28
45 20z m-90 -55 c0 -5 -5 -10 -11 -10 -5 0 -7 5 -4 10 3 6 8 10 11 10 2 0 4
-4 4 -10z m-30 -15 c0 -2 -10 -9 -22 -15 -22 -11 -22 -10 -4 4 21 17 26 19 26
11z"/>
<path d="M1483 2493 c31 -2 83 -2 115 0 31 2 5 3 -58 3 -63 0 -89 -1 -57 -3z"/>
<path d="M1720 2474 c35 -8 86 -25 114 -39 59 -30 72 -28 18 3 -42 23 -144 53
-177 51 -11 -1 9 -7 45 -15z"/>
<path d="M1005 2310 c-3 -5 -1 -10 4 -10 6 0 11 5 11 10 0 6 -2 10 -4 10 -3 0
-8 -4 -11 -10z"/>
<path d="M2070 2286 c0 -2 8 -10 18 -17 15 -13 16 -12 3 4 -13 16 -21 21 -21
13z"/>
<path d="M1570 1660 c-9 -6 -10 -10 -3 -10 6 0 15 5 18 10 8 12 4 12 -15 0z"/>
<path d="M730 213 c8 -3 30 -14 48 -25 17 -11 32 -17 32 -15 0 9 -67 47 -81
46 -11 0 -10 -2 1 -6z"/>
<path d="M1158 38 c5 -5 16 -8 23 -6 8 3 3 7 -10 11 -17 4 -21 3 -13 -5z"/>
<path d="M1770 24 l-65 -13 60 5 c66 5 142 23 95 22 -14 -1 -54 -7 -90 -14z"/>
<path d="M1260 14 c36 -7 85 -13 110 -12 31 0 15 4 -50 14 -119 16 -145 16
-60 -2z"/>
<path d="M1428 3 c6 -2 18 -2 25 0 6 3 1 5 -13 5 -14 0 -19 -2 -12 -5z"/>
<path d="M1593 3 c20 -2 54 -2 75 0 20 2 3 4 -38 4 -41 0 -58 -2 -37 -4z"/>
</g>
</svg>
